<?xml version="1.0" encoding="utf-8"?><svg viewBox="0 0 51 51" xmlns="http://www.w3.org/2000/svg" xmlns:xlink="http://www.w3.org/1999/xlink"><style>:root>svg{display:none}:root>svg:target{display:block}</style><svg viewBox="0 0 15.166 15.166" id="arrow" xmlns="http://www.w3.org/2000/svg"><path d="m0 13.722 11.7-11.7H0V0h15.166v15.166h-2.022v-11.7l-11.7 11.7L0 13.722Z" fill="currentColor"/></svg><svg fill="none" viewBox="0 0 51 51" id="arrow-circle" xmlns="http://www.w3.org/2000/svg"><clipPath id="aa"><rect rx="25.5" width="51" height="51" transform="matrix(-1 0 0 1 51 0)" fill="#fff" fill-opacity="0"/></clipPath><rect rx="25.5" width="51" height="51" transform="matrix(-1 0 0 1 51 0)" fill="#FFF"/><g clip-path="url(#aa)"><path d="m17.878 31.746 11.7-11.7h-11.7v-2.022h15.166V33.19h-2.022v-11.7l-11.7 11.7-1.444-1.444Z" fill="#CBB68F"/></g></svg><svg fill="none" viewBox="0 0 16.333 16.333" id="arrow-x" xmlns="http://www.w3.org/2000/svg"><path d="M0 8.944h13.23l-6.615 6.3 1.143 1.09 8.575-8.168L7.758 0 6.615 1.089l6.615 6.3H0v1.555Z" fill="currentColor"/></svg><svg fill="none" viewBox="0 0 28.012 28.012" id="close-icon" xmlns="http://www.w3.org/2000/svg"><path d="m1.506 1.506 25 25m-25 0 25-25"/></svg><svg viewBox="0 0 22 44" fill="none" id="favicon" xmlns="http://www.w3.org/2000/svg"><defs><clipPath id="ea"><path fill="#fff" fill-opacity="0" d="M0 0h179v44H0z"/></clipPath></defs><path fill="none" d="M0 0h179v44H0z"/><g clip-path="url(#ea)" fill="#182221" fill-rule="evenodd"><path d="M.674 7.062h20.218c.373 0 .674.304.674.679a.677.677 0 0 1-.674.679H.674A.676.676 0 0 1 0 7.74c0-.374.302-.678.674-.678ZM.674 12.765h20.218c.373 0 .674.304.674.68a.677.677 0 0 1-.674.678H.674A.677.677 0 0 1 0 13.444c0-.375.302-.679.674-.679ZM.674 18.47h20.218c.373 0 .674.303.674.678a.676.676 0 0 1-.674.68H.674a.676.676 0 0 1-.674-.68c0-.375.302-.679.674-.679ZM.674 24.173h20.218c.373 0 .674.304.674.679a.677.677 0 0 1-.674.679H.674A.677.677 0 0 1 0 24.85c0-.374.302-.678.674-.678ZM.674 29.877h20.218c.373 0 .674.303.674.678a.677.677 0 0 1-.674.68H.674a.677.677 0 0 1-.674-.68c0-.375.302-.678.674-.678Z"/></g></svg><svg fill="none" viewBox="0 0 31.94 33.2" id="house-vavilon" xmlns="http://www.w3.org/2000/svg"><path d="M30.39 8.97V6.52L15.97.5 1.55 6.52v2.45h28.84ZM7.64 11.14H3.23v2.17h4.41v-2.17ZM14.64 11.14h-4.41v2.17h4.41v-2.17ZM21.71 11.14H17.3v2.17h4.41v-2.17ZM28.71 11.14H24.3v2.17h4.41v-2.17ZM3.23 30.53h4.41v-2.17H3.23v2.17ZM10.23 30.53h4.41v-2.17h-4.41v2.17ZM17.3 30.53h4.41v-2.17H17.3v2.17ZM24.3 30.53h4.41v-2.17H24.3v2.17Z" fill="#CBB68F"/><path d="M15.97 8.97h15.47v2.17H.5V8.97h15.47m14.42 0H1.55V6.52L15.97.5l14.42 6.02v2.45Zm1.05 21.56v2.17H.5v-2.17h30.94ZM7.64 11.14v2.17H3.23v-2.17h4.41ZM3.23 30.53v-2.17h4.41v2.17m23.8 0H.5m2.73-17.22h4.41m-.7 0v15.05m.7 0H3.23m.63 0V13.31m10.78-2.17v2.17h-4.41v-2.17h4.41Zm-4.41 19.39v-2.17h4.41v2.17m-4.41-17.22h4.41m-.63 0v15.05m.63 0h-4.41m.7 0V13.31m10.78-2.17v2.17H17.3v-2.17h4.41ZM17.3 30.53v-2.17h4.41v2.17M17.3 13.31h4.41m-.7 0v15.05m.7 0H17.3m.63 0V13.31m10.78-2.17v2.17H24.3v-2.17h4.41ZM24.3 30.53v-2.17h4.41v2.17M24.3 13.31h4.41m-.63 0v15.05m.63 0H24.3m.7 0V13.31" stroke="#CBB68F" stroke-linejoin="round"/></svg><svg fill="none" viewBox="0 0 25.5 25.5" id="instagram" xmlns="http://www.w3.org/2000/svg"><path d="M16.521 16.521a5.332 5.332 0 1 0-7.54-7.542 5.332 5.332 0 0 0 7.54 7.542Z" stroke="currentColor" stroke-width="1.5" stroke-linejoin="round"/><path d="M.75 7.417A6.666 6.666 0 0 1 7.417.75h10.666a6.666 6.666 0 0 1 6.667 6.667v10.667a6.666 6.666 0 0 1-6.667 6.666H7.417A6.666 6.666 0 0 1 .75 18.084V7.416Z" stroke="currentColor" stroke-width="1.5"/><path d="m20.083 5.43.014-.014" stroke="currentColor" stroke-width="1.5" stroke-linejoin="round" stroke-linecap="round"/></svg><svg fill="none" viewBox="0 0 25.5 25.5" id="linkedin" xmlns="http://www.w3.org/2000/svg"><path d="M22.64 10.549c1.351 1.421 2.11 3.349 2.11 5.36v8.841h-4.8v-8.842c0-.67-.253-1.313-.703-1.786a2.341 2.341 0 0 0-1.697-.74 2.34 2.34 0 0 0-1.697.74 2.595 2.595 0 0 0-.703 1.786v8.842h-4.8v-8.842c0-2.01.758-3.938 2.109-5.36 1.35-1.42 3.181-2.219 5.09-2.219 1.91 0 3.742.798 5.092 2.22ZM5.55 9.592V24.75H.75V9.592h4.8ZM3.15 5.803c-1.325 0-2.4-1.132-2.4-2.527C.75 1.881 1.825.75 3.15.75s2.4 1.13 2.4 2.526c0 1.395-1.075 2.527-2.4 2.527Z" stroke="currentColor" stroke-width="1.5" stroke-linejoin="round"/></svg><svg fill="none" viewBox="0 0 18.75 26.25" id="location" xmlns="http://www.w3.org/2000/svg"><path d="M9.375 0C4.199 0 0 3.78 0 8.438c0 7.5 9.375 17.812 9.375 17.812S18.75 15.937 18.75 8.437C18.75 3.78 14.55 0 9.375 0Zm0 13.125a3.75 3.75 0 1 1 0-7.5 3.75 3.75 0 0 1 0 7.5Z" fill="#CBB68F"/></svg><svg fill="none" viewBox="0 0 30.794 34" id="search-risk" xmlns="http://www.w3.org/2000/svg"><path d="M4.968 1.97c0-.47.382-.851.85-.851h22.273c.47 0 .851.381.851.851v25.205l1.119 1.118V1.97c0-1.086-.884-1.97-1.97-1.97H5.819c-1.086 0-1.97.884-1.97 1.97v2.455c.358-.25.731-.478 1.119-.683V1.97ZM5.819 31.78a.852.852 0 0 1-.851-.852v-8.41c-.388-.204-.76-.432-1.119-.682v9.093c0 1.086.884 1.97 1.97 1.97h18.9l-1.118-1.12H5.819Z" fill="#CBB68F"/><path d="M25.312 5.81a.56.56 0 0 0-.559-.559h-7.717a10.554 10.554 0 0 1 1.071 1.119h6.646a.56.56 0 0 0 .56-.56ZM25.312 11.13a.56.56 0 0 0-.56-.56h-4.526c.092.369.163.742.215 1.119h4.312a.56.56 0 0 0 .559-.56ZM25.312 16.449a.56.56 0 0 0-.56-.56h-4.577c-.102.379-.225.752-.369 1.12h4.947a.56.56 0 0 0 .559-.56ZM25.312 21.769a.56.56 0 0 0-.56-.56h-1.859c.124.07.24.157.343.26l.86.859h.657a.56.56 0 0 0 .56-.56ZM8.596 27.088c0 .31.25.56.56.56h10.311l-1.118-1.12H9.156a.56.56 0 0 0-.56.56ZM18.329 24.17l2.634-2.635-2.331-2.332a10.675 10.675 0 0 1-2.635 2.635l2.332 2.331ZM30.538 29.747l-7.79-7.79a.869.869 0 0 0-1.231 0l-.066.066-2.635 2.634-.066.067a.87.87 0 0 0 0 1.23l7.79 7.791a.868.868 0 0 0 1.231 0l2.767-2.767a.87.87 0 0 0 0-1.231ZM4.553 18.502c-2.962-2.962-2.962-7.78 0-10.742 2.961-2.962 7.78-2.962 10.742 0 2.962 2.961 2.962 7.78 0 10.742-2.962 2.961-7.78 2.961-10.742 0Zm12.388 1.646a9.891 9.891 0 0 0 2.907-7.017 9.891 9.891 0 0 0-2.907-7.018 9.89 9.89 0 0 0-7.017-2.907 9.891 9.891 0 0 0-7.017 2.907A9.891 9.891 0 0 0 0 13.13a9.891 9.891 0 0 0 2.907 7.018 9.89 9.89 0 0 0 7.017 2.907 9.89 9.89 0 0 0 7.017-2.907Z" fill="#CBB68F"/><path d="M6.209 12.603a.436.436 0 0 1-.13.163.627.627 0 0 1-.217.106 1.094 1.094 0 0 1-.304.038h-.415v-1.023h.365c.093 0 .166.002.219.008.052.005.1.013.14.022a.495.495 0 0 1 .295.173c.06.082.09.183.09.302a.504.504 0 0 1-.043.211Zm1.016 2.005-.338-.71a2.256 2.256 0 0 0-.12-.23 1.317 1.317 0 0 0-.132-.182.85.85 0 0 0-.318-.23c.124-.036.234-.082.332-.14a.957.957 0 0 0 .244-.203.824.824 0 0 0 .15-.267c.035-.099.052-.209.052-.33a.956.956 0 0 0-.072-.38.815.815 0 0 0-.205-.288c-.09-.08-.2-.146-.329-.196a1.836 1.836 0 0 0-.621-.12 4.94 4.94 0 0 0-.26-.006H4.57a.27.27 0 0 0-.173.055c-.046.036-.07.095-.07.176v3.277c0 .019.007.036.02.05a.133.133 0 0 0 .064.037c.031.009.073.016.126.022.053.005.118.008.197.008.08 0 .146-.003.198-.008a.728.728 0 0 0 .124-.022.144.144 0 0 0 .067-.037.073.073 0 0 0 .02-.05V13.46h.254c.086 0 .163.013.23.037a.51.51 0 0 1 .174.107c.05.047.097.107.138.177.041.07.084.152.127.243l.36.806a.21.21 0 0 0 .03.057.133.133 0 0 0 .064.039c.03.01.07.017.122.02a4.103 4.103 0 0 0 .452 0 .655.655 0 0 0 .137-.019c.031-.009.05-.02.059-.034a.1.1 0 0 0 .012-.052.273.273 0 0 0-.015-.077 1.812 1.812 0 0 0-.062-.155ZM8.7 14.884a.073.073 0 0 0 .02-.05v-3.407a.074.074 0 0 0-.02-.05.145.145 0 0 0-.067-.037.722.722 0 0 0-.124-.022 1.904 1.904 0 0 0-.198-.009c-.079 0-.144.003-.196.009a.763.763 0 0 0-.125.022.146.146 0 0 0-.068.036.073.073 0 0 0-.02.05v3.408c0 .019.006.036.02.05a.143.143 0 0 0 .067.037c.03.009.072.016.125.022.053.005.118.008.197.008.08 0 .146-.003.198-.008a.723.723 0 0 0 .124-.022.144.144 0 0 0 .067-.037ZM11.724 11.579a.205.205 0 0 0-.019-.052.204.204 0 0 0-.042-.047.526.526 0 0 0-.127-.07 1.577 1.577 0 0 0-.22-.075 2.137 2.137 0 0 0-1.074-.009 1.281 1.281 0 0 0-.427.194.96.96 0 0 0-.288.326.94.94 0 0 0-.107.456c0 .15.025.28.074.388.05.108.114.201.194.28.08.08.17.147.271.204.101.056.206.107.313.152l.313.127c.101.04.191.082.271.128.08.046.144.098.194.156.05.059.074.129.074.21a.394.394 0 0 1-.169.338.626.626 0 0 1-.2.09 1.015 1.015 0 0 1-.266.033 1.55 1.55 0 0 1-.398-.046 1.974 1.974 0 0 1-.5-.204.272.272 0 0 0-.121-.046.096.096 0 0 0-.055.015.105.105 0 0 0-.037.052.378.378 0 0 0-.02.095 1.386 1.386 0 0 0 .01.341c.012.046.031.08.058.105.027.024.07.052.132.084.06.031.137.062.228.09a2.394 2.394 0 0 0 .7.105c.204 0 .396-.024.576-.073.18-.048.337-.12.471-.216.134-.096.24-.215.32-.358a1.02 1.02 0 0 0 .117-.5.89.89 0 0 0-.27-.656 1.256 1.256 0 0 0-.275-.204 3.256 3.256 0 0 0-.316-.152 14.112 14.112 0 0 0-.316-.127 2.165 2.165 0 0 1-.278-.128.683.683 0 0 1-.195-.156.315.315 0 0 1-.073-.208c0-.053.011-.105.033-.153a.325.325 0 0 1 .099-.124.504.504 0 0 1 .166-.081.828.828 0 0 1 .232-.03c.114 0 .218.013.313.038a1.88 1.88 0 0 1 .434.169c.05.026.086.04.108.04.023 0 .04-.007.054-.018a.105.105 0 0 0 .031-.053.473.473 0 0 0 .016-.092 1.636 1.636 0 0 0 .002-.258.497.497 0 0 0-.011-.08ZM15.324 11.686c.052-.073.087-.126.106-.159a.2.2 0 0 0 .028-.098.078.078 0 0 0-.019-.05.142.142 0 0 0-.066-.038.685.685 0 0 0-.13-.023 2.865 2.865 0 0 0-.403-.003.662.662 0 0 0-.126.02.24.24 0 0 0-.08.037.216.216 0 0 0-.053.06l-1.175 1.146v-1.149a.08.08 0 0 0-.018-.053.134.134 0 0 0-.065-.036.72.72 0 0 0-.124-.022 1.905 1.905 0 0 0-.199-.009 1.91 1.91 0 0 0-.196.009.725.725 0 0 0-.126.022.145.145 0 0 0-.066.036.076.076 0 0 0-.02.053v3.4c0 .02.006.038.02.053a.153.153 0 0 0 .066.037c.031.01.073.018.126.024.052.005.118.008.196.008.081 0 .147-.003.199-.008a.63.63 0 0 0 .124-.024.141.141 0 0 0 .065-.037.08.08 0 0 0 .018-.053v-1.325l1.212 1.325a.204.204 0 0 0 .06.066.304.304 0 0 0 .127.042c.06.01.156.014.29.014.085 0 .155-.003.21-.008a.684.684 0 0 0 .133-.024c.032-.01.053-.023.064-.039a.09.09 0 0 0 .018-.054.183.183 0 0 0-.014-.06 1.257 1.257 0 0 0-.082-.152l-1.394-1.631 1.294-1.297Z" fill="#CBB68F"/></svg><svg fill="none" viewBox="0 0 24.029 24.824" id="submit-form" xmlns="http://www.w3.org/2000/svg"><path d="m23.485 11.489-22-11.38a.97.97 0 0 0-1.08.124 1.036 1.036 0 0 0-.308.47 1.068 1.068 0 0 0-.022.565l2.65 10.107h11.31v2.069H2.724L.035 23.519a1.07 1.07 0 0 0 .182.913c.097.127.222.228.364.296.142.068.297.1.454.095a.972.972 0 0 0 .45-.114l22-11.38c.163-.086.3-.218.397-.38a1.06 1.06 0 0 0 0-1.08 1.016 1.016 0 0 0-.397-.38Z" fill="currentColor"/></svg><svg fill="none" viewBox="0 0 29 35" id="success-doc" xmlns="http://www.w3.org/2000/svg"><path d="M28.826 4.692 23.66.152A.638.638 0 0 0 23.24 0H.594a.638.638 0 0 0-.42.153A.491.491 0 0 0 0 .52V34.48c0 .138.063.27.174.368a.638.638 0 0 0 .42.153h27.812a.638.638 0 0 0 .42-.153.491.491 0 0 0 .174-.368V5.059a.491.491 0 0 0-.174-.367Zm-4.992-2.91 3.14 2.757h-3.14V1.78ZM1.187 33.956V1.043h21.46v4.015c0 .139.062.271.173.37a.638.638 0 0 0 .42.152h4.573v28.377H1.187Z" fill="#CBB68F"/><path d="M14.5 29.42H5.76a.638.638 0 0 0-.42.153.491.491 0 0 0-.173.368c0 .139.062.271.173.369a.638.638 0 0 0 .42.152h8.74a.637.637 0 0 0 .42-.152.491.491 0 0 0 .174-.369.491.491 0 0 0-.174-.368.638.638 0 0 0-.42-.153Zm8.74-3.32H5.76a.638.638 0 0 0-.42.153.491.491 0 0 0-.173.369c0 .138.062.27.173.369a.638.638 0 0 0 .42.152h17.48a.637.637 0 0 0 .42-.152.492.492 0 0 0 .174-.37.492.492 0 0 0-.174-.368.637.637 0 0 0-.42-.152Zm0-3.319H5.76a.638.638 0 0 0-.42.153.491.491 0 0 0-.173.369c0 .138.062.27.173.368a.638.638 0 0 0 .42.153h17.48a.637.637 0 0 0 .42-.153.492.492 0 0 0 .174-.368.492.492 0 0 0-.174-.369.637.637 0 0 0-.42-.152Z" fill="#CBB68F"/><ellipse cx="14.5" cy="12" rx="6.767" ry="7" fill="#CBB68F"/><path d="m13.268 13.158 4.222-3.43c.1-.081.218-.122.356-.122.137 0 .255.041.354.122.1.08.15.177.15.288 0 .112-.05.208-.15.289l-4.583 3.723a.537.537 0 0 1-.35.121.537.537 0 0 1-.348-.121l-2.142-1.74a.345.345 0 0 1-.143-.289.382.382 0 0 1 .155-.288c.1-.081.218-.122.356-.122.137 0 .255.04.354.122l1.769 1.447Z" fill="#FFF"/></svg><svg fill="none" viewBox="0 0 30.823 35" id="success-map" xmlns="http://www.w3.org/2000/svg"><path fill="none" d="M0 0h30.823v35H0z"/><g clip-path="url(#clip52_1204)"><mask id="ma" mask-type="alpha" maskUnits="userSpaceOnUse" x="0" y="2.342" width="21.899" height="27.152"><path d="M.316 2.342h21.266c.175 0 .317.142.317.316v26.52a.316.316 0 0 1-.317.316H.316A.316.316 0 0 1 0 29.177V2.658c0-.174.142-.316.316-.316Z" fill="#FFF" fill-rule="evenodd"/></mask><g mask="url(#ma)"><path d="M21.582 2.342c.175 0 .317.142.317.316v26.52a.316.316 0 0 1-.317.316H.316A.316.316 0 0 1 0 29.177V2.658c0-.174.142-.316.316-.316h21.266Z" stroke="#CBB68F" stroke-width="3.565"/></g><path d="M13.798 12.468a.76.76 0 1 1-1.52 0 .76.76 0 0 1 1.52 0ZM5.19 17.658a.76.76 0 1 1-1.52 0 .76.76 0 0 1 1.52 0ZM13.798 22.975a.76.76 0 1 1-1.52 0 .76.76 0 0 1 1.52 0ZM5.855 15.7l5.333-2.807a.452.452 0 0 1 .42.8l-5.332 2.806a.452.452 0 0 1-.42-.8ZM6.306 18.943l5.357 2.76a.452.452 0 0 1-.414.803l-5.357-2.76a.452.452 0 0 1 .414-.803Z" fill="#CBB68F" fill-rule="evenodd"/><path d="m11.203 8.583 1.867-1.81 1.867 1.81m-1.867-1.56v3.673" stroke="#CBB68F" stroke-width=".7" stroke-linejoin="round"/><path d="M6.772 1.709h8.418v3.29H6.772V1.71Z" fill="#FFF" fill-rule="evenodd"/><path d="M8.987 1.076h3.988c.629 0 1.139.51 1.139 1.14V3.86c0 .629-.51 1.139-1.14 1.139H8.988c-.629 0-1.139-.51-1.139-1.14V2.216c0-.63.51-1.14 1.14-1.14Z" fill="#CBB68F" fill-rule="evenodd"/><path d="M10.063 1.772H11.9c.629 0 1.139.51 1.139 1.14v.253c0 .629-.51 1.139-1.14 1.139h-1.835c-.629 0-1.139-.51-1.139-1.14v-.252c0-.63.51-1.14 1.14-1.14ZM10.127 0h1.708c.35 0 .633.283.633.633v.253c0 .35-.283.633-.633.633h-1.708a.633.633 0 0 1-.633-.633V.633c0-.35.283-.633.633-.633Z" fill="#CBB68F" fill-rule="evenodd"/><path d="M23.006 34.462a7.279 7.279 0 1 0 0-14.557 7.279 7.279 0 0 0 0 14.557Z" fill="#CBB68F"/><path d="M23.006 34.462a7.279 7.279 0 1 1 0-14.557 7.279 7.279 0 0 1 0 14.557Z" stroke="#CBB68F" stroke-width="1.082"/><path d="m21.47 29.02 5.3-4.922a.634.634 0 0 1 .445-.174c.172 0 .32.058.445.174a.547.547 0 0 1 0 .828l-5.751 5.343a.623.623 0 0 1-.438.174.623.623 0 0 1-.438-.174l-2.688-2.497a.522.522 0 0 1-.18-.414.573.573 0 0 1 .195-.414.634.634 0 0 1 .446-.174c.172 0 .32.058.445.174l2.22 2.076Z" fill="#FFF"/></g></svg><svg fill="none" viewBox="0 0 30.833 25.587" id="twitter" xmlns="http://www.w3.org/2000/svg"><path d="M25.897 2.81a5.972 5.972 0 0 0-9.45.565 5.975 5.975 0 0 0-1.03 3.435v1.334a14.217 14.217 0 0 1-12-6.04s-5.334 12 6.666 17.333A15.521 15.521 0 0 1 .75 22.103c12 6.667 26.667 0 26.667-15.333 0-.37-.038-.741-.107-1.106C28.67 4.322 30.083.77 30.083.77s-2.69 1.59-4.186 2.04Z" stroke="currentColor" stroke-width="1.5" stroke-linejoin="round"/></svg><svg fill="none" viewBox="0 0 32 26" id="youtube" xmlns="http://www.w3.org/2000/svg"><path d="M27.2 0H4.8a4.768 4.768 0 0 0-3.393 1.43A4.92 4.92 0 0 0 0 4.874v16.25a4.92 4.92 0 0 0 1.407 3.446c.9.914 2.12 1.428 3.393 1.429h22.4a4.768 4.768 0 0 0 3.393-1.43A4.92 4.92 0 0 0 32 21.126V4.875a4.92 4.92 0 0 0-1.407-3.446A4.768 4.768 0 0 0 27.2 0Zm3.2 21.125a3.28 3.28 0 0 1-.939 2.297c-.6.609-1.413.952-2.261.953H4.8a3.179 3.179 0 0 1-2.261-.953 3.28 3.28 0 0 1-.939-2.297V4.875a3.28 3.28 0 0 1 .939-2.297A3.18 3.18 0 0 1 4.8 1.625h22.4a3.179 3.179 0 0 1 2.261.953c.6.61.938 1.435.939 2.297v16.25Zm-10.246-9.577.313-.537c.345.201.631.491.83.84a2.323 2.323 0 0 1 0 2.3c-.199.35-.485.64-.83.841L14.6 18.424a2.23 2.23 0 0 1-2.27-.003 2.28 2.28 0 0 1-1.13-1.99v-6.86c0-.404.105-.8.304-1.15.199-.35.485-.64.83-.842a2.238 2.238 0 0 1 2.264-.002l5.87 3.432-.315.538Zm-7.023-2.56a.659.659 0 0 0-.331.583v6.858a.672.672 0 0 0 .666.679.655.655 0 0 0 .336-.093l5.865-3.433a.66.66 0 0 0 .334-.58.674.674 0 0 0-.334-.58L13.8 8.987a.636.636 0 0 0-.669 0Z" fill="currentColor" fill-rule="evenodd"/></svg></svg>