<svg width="44" height="44" viewBox="0 0 22 44" fill="none" xmlns="http://www.w3.org/2000/svg" xmlns:xlink="http://www.w3.org/1999/xlink">
	<desc>
			Created with Pixso.
	</desc>
	<defs>
		<clipPath id="clip52_1163">
			<rect id="Group 1 (1) 1" width="179.000000" height="44.000000" fill="white" fill-opacity="0"/>
		</clipPath>
	</defs>
	<rect id="Group 1 (1) 1" width="179.000000" height="44.000000" fill="#FFFFFF" fill-opacity="0"/>
	<g clip-path="url(#clip52_1163)">

		<path id="Vector" d="M0.67395 7.06177L20.8923 7.06177C21.2645 7.06177 21.5663 7.36572 21.5663 7.74072C21.5663 8.11572 21.2645 8.41968 20.8923 8.41968L0.67395 8.41968C0.301758 8.41968 0 8.11572 0 7.74072C0 7.36572 0.301758 7.06177 0.67395 7.06177Z" fill="#182221" fill-opacity="1.000000" fill-rule="evenodd"/>
		<path id="Vector" d="M0.67395 12.7654L20.8923 12.7654C21.2645 12.7654 21.5663 13.0693 21.5663 13.4443C21.5663 13.8193 21.2645 14.1233 20.8923 14.1233L0.67395 14.1233C0.301758 14.1233 0 13.8193 0 13.4443C0 13.0693 0.301758 12.7654 0.67395 12.7654Z" fill="#182221" fill-opacity="1.000000" fill-rule="evenodd"/>
		<path id="Vector" d="M0.67395 18.4692L20.8923 18.4692C21.2645 18.4692 21.5663 18.7732 21.5663 19.1482C21.5663 19.5232 21.2645 19.8271 20.8923 19.8271L0.67395 19.8271C0.301758 19.8271 0 19.5232 0 19.1482C0 18.7732 0.301758 18.4692 0.67395 18.4692Z" fill="#182221" fill-opacity="1.000000" fill-rule="evenodd"/>
		<path id="Vector" d="M0.67395 24.1729L20.8923 24.1729C21.2645 24.1729 21.5663 24.4768 21.5663 24.8518C21.5663 25.2268 21.2645 25.5308 20.8923 25.5308L0.67395 25.5308C0.301758 25.5308 0 25.2268 0 24.8518C0 24.4768 0.301758 24.1729 0.67395 24.1729Z" fill="#182221" fill-opacity="1.000000" fill-rule="evenodd"/>
		<path id="Vector" d="M0.67395 29.8765L20.8923 29.8765C21.2645 29.8765 21.5663 30.1804 21.5663 30.5554C21.5663 30.9304 21.2645 31.2344 20.8923 31.2344L0.67395 31.2344C0.301758 31.2344 0 30.9304 0 30.5554C0 30.1804 0.301758 29.8765 0.67395 29.8765Z" fill="#182221" fill-opacity="1.000000" fill-rule="evenodd"/>
	</g>
</svg>
