<svg width="31.939995" height="33.200073" viewBox="0 0 31.94 33.2001" fill="none" xmlns="http://www.w3.org/2000/svg"
	xmlns:xlink="http://www.w3.org/1999/xlink">
	<path id="Vector"
		d="M30.39 8.97009L30.39 6.52014L15.97 0.500122L1.55 6.52014L1.55 8.97009L15.97 8.97009L30.39 8.97009Z"
		fill="#CBB68F" fill-opacity="1.000000" fill-rule="nonzero" />
	<path id="Vector" d="M7.64 11.1401L3.23 11.1401L3.23 13.3102L3.86 13.3102L6.94 13.3102L7.64 13.3102L7.64 11.1401Z"
		fill="#CBB68F" fill-opacity="1.000000" fill-rule="nonzero" />
	<path id="Vector"
		d="M14.64 11.1401L10.23 11.1401L10.23 13.3102L10.93 13.3102L14.01 13.3102L14.64 13.3102L14.64 11.1401Z"
		fill="#CBB68F" fill-opacity="1.000000" fill-rule="nonzero" />
	<path id="Vector"
		d="M21.71 11.1401L17.3 11.1401L17.3 13.3102L17.93 13.3102L21.01 13.3102L21.71 13.3102L21.71 11.1401Z" fill="#CBB68F"
		fill-opacity="1.000000" fill-rule="nonzero" />
	<path id="Vector" d="M28.71 11.1401L24.3 11.1401L24.3 13.3102L25 13.3102L28.08 13.3102L28.71 13.3102L28.71 11.1401Z"
		fill="#CBB68F" fill-opacity="1.000000" fill-rule="nonzero" />
	<path id="Vector" d="M3.23 30.5302L7.64 30.5302L7.64 28.3601L6.94 28.3601L3.86 28.3601L3.23 28.3601L3.23 30.5302Z"
		fill="#CBB68F" fill-opacity="1.000000" fill-rule="nonzero" />
	<path id="Vector"
		d="M10.23 30.5302L14.64 30.5302L14.64 28.3601L14.01 28.3601L10.93 28.3601L10.23 28.3601L10.23 30.5302Z"
		fill="#CBB68F" fill-opacity="1.000000" fill-rule="nonzero" />
	<path id="Vector" d="M17.3 30.5302L21.71 30.5302L21.71 28.3601L21.01 28.3601L17.93 28.3601L17.3 28.3601L17.3 30.5302Z"
		fill="#CBB68F" fill-opacity="1.000000" fill-rule="nonzero" />
	<path id="Vector" d="M24.3 30.5302L28.71 30.5302L28.71 28.3601L28.08 28.3601L25 28.3601L24.3 28.3601L24.3 30.5302Z"
		fill="#CBB68F" fill-opacity="1.000000" fill-rule="nonzero" />
	<path id="Vector"
		d="M15.97 8.97009L31.44 8.97009L31.44 11.1401L0.5 11.1401L0.5 8.97009L15.97 8.97009M30.39 8.97009L15.97 8.97009L1.55 8.97009L1.55 6.52014L15.97 0.500122L30.39 6.52014L30.39 8.97009ZM31.44 30.5302L31.44 32.7001L0.5 32.7001L0.5 30.5302L31.44 30.5302ZM7.64 11.1401L7.64 13.3102L3.23 13.3102L3.23 11.1401L7.64 11.1401ZM3.23 30.5302L3.23 28.3601L7.64 28.3601L7.64 30.5302M31.44 30.5302L28.71 30.5302L24.3 30.5302L21.71 30.5302L17.3 30.5302L14.64 30.5302L10.23 30.5302L7.64 30.5302L3.23 30.5302L0.5 30.5302M3.23 13.3102L3.86 13.3102L6.94 13.3102L7.64 13.3102M6.94 13.3102L6.94 28.3601M7.64 28.3601L6.94 28.3601L3.86 28.3601L3.23 28.3601M3.86 28.3601L3.86 13.3102M14.64 11.1401L14.64 13.3102L10.23 13.3102L10.23 11.1401L14.64 11.1401ZM10.23 30.5302L10.23 28.3601L14.64 28.3601L14.64 30.5302M10.23 13.3102L10.93 13.3102L14.01 13.3102L14.64 13.3102M14.01 13.3102L14.01 28.3601M14.64 28.3601L14.01 28.3601L10.93 28.3601L10.23 28.3601M10.93 28.3601L10.93 13.3102M21.71 11.1401L21.71 13.3102L17.3 13.3102L17.3 11.1401L21.71 11.1401ZM17.3 30.5302L17.3 28.3601L21.71 28.3601L21.71 30.5302M17.3 13.3102L17.93 13.3102L21.01 13.3102L21.71 13.3102M21.01 13.3102L21.01 28.3601M21.71 28.3601L21.01 28.3601L17.93 28.3601L17.3 28.3601M17.93 28.3601L17.93 13.3102M28.71 11.1401L28.71 13.3102L24.3 13.3102L24.3 11.1401L28.71 11.1401ZM24.3 30.5302L24.3 28.3601L28.71 28.3601L28.71 30.5302M24.3 13.3102L25 13.3102L28.08 13.3102L28.71 13.3102M28.08 13.3102L28.08 28.3601M28.71 28.3601L28.08 28.3601L25 28.3601L24.3 28.3601M25 28.3601L25 13.3102"
		stroke="#CBB68F" stroke-opacity="1.000000" stroke-width="1.000000" stroke-linejoin="round" />
</svg>