<svg width="25.500000" height="25.500000" viewBox="0 0 25.5 25.5" fill="none" xmlns="http://www.w3.org/2000/svg" xmlns:xlink="http://www.w3.org/1999/xlink">
	<path id="Vector" d="M16.5213 16.521C17.5215 15.521 18.0834 14.1646 18.0834 12.75C18.0834 11.3354 17.5215 9.979 16.5213 8.97852C15.5211 7.97852 14.1646 7.4165 12.7501 7.4165C11.3356 7.4165 9.97903 7.97852 8.97885 8.97852C7.97865 9.979 7.41675 11.3354 7.41675 12.75C7.41675 14.1646 7.97865 15.521 8.97885 16.521C9.97903 17.5215 11.3356 18.083 12.7501 18.083C14.1646 18.083 15.5211 17.5215 16.5213 16.521Z" stroke="#112615" stroke-opacity="1.000000" stroke-width="1.500000" stroke-linejoin="round"/>
	<path id="Vector" d="M0.75 7.4165C0.75 5.64844 1.45238 3.95264 2.70262 2.70264C3.95287 1.45215 5.64856 0.75 7.41667 0.75L18.0833 0.75C19.8514 0.75 21.5471 1.45215 22.7974 2.70264C24.0476 3.95264 24.75 5.64844 24.75 7.4165L24.75 18.0835C24.75 19.8516 24.0476 21.5474 22.7974 22.7974C21.5471 24.0479 19.8514 24.75 18.0833 24.75L7.41667 24.75C5.64856 24.75 3.95287 24.0479 2.70262 22.7974C1.45238 21.5474 0.75 19.8516 0.75 18.0835L0.75 7.4165Z" stroke="#112615" stroke-opacity="1.000000" stroke-width="1.500000"/>
	<path id="Vector" d="M20.0833 5.43066L20.0971 5.41553" stroke="#112615" stroke-opacity="1.000000" stroke-width="1.500000" stroke-linejoin="round" stroke-linecap="round"/>
</svg>
