<svg width="25.499756" height="25.500000" viewBox="0 0 25.4998 25.5" fill="none" xmlns="http://www.w3.org/2000/svg"
	xmlns:xlink="http://www.w3.org/1999/xlink">
	<path id="Vector"
		d="M22.6409 10.5488C23.9912 11.9702 24.7498 13.8979 24.7498 15.9082L24.7498 24.75L19.9498 24.75L19.9498 15.9082C19.9498 15.2378 19.6969 14.5952 19.2469 14.1216C18.7968 13.6479 18.1863 13.3818 17.5498 13.3818C16.9133 13.3818 16.3029 13.6479 15.8528 14.1216C15.4027 14.5952 15.1499 15.2378 15.1499 15.9082L15.1499 24.75L10.3499 24.75L10.3499 15.9082C10.3499 13.8979 11.1085 11.9702 12.4587 10.5488C13.809 9.12744 15.6403 8.3291 17.5498 8.3291C19.4594 8.3291 21.2907 9.12744 22.6409 10.5488ZM5.54996 9.59229L5.54996 24.75L0.75 24.75L0.75 9.59229L5.54996 9.59229Z"
		stroke-opacity="1.000000" stroke-width="1.500000" stroke-linejoin="round" />
	<path id="Vector"
		d="M3.14998 5.80273C1.82451 5.80273 0.75 4.67139 0.75 3.27637C0.75 1.88086 1.82451 0.75 3.14998 0.75C4.47545 0.75 5.54996 1.88086 5.54996 3.27637C5.54996 4.67139 4.47545 5.80273 3.14998 5.80273Z"
		stroke-opacity="1.000000" stroke-width="1.500000" stroke-linejoin="round" />
</svg>