<svg width="18.750000" height="26.250000" viewBox="0 0 18.75 26.25" fill="none" xmlns="http://www.w3.org/2000/svg"
	xmlns:xlink="http://www.w3.org/1999/xlink">
	<path id="Vector"
		d="M9.375 0C4.1994 0 0 3.77979 0 8.4375C0 15.9375 9.375 26.25 9.375 26.25C9.375 26.25 18.75 15.9375 18.75 8.4375C18.75 3.77979 14.5506 0 9.375 0ZM9.375 13.125C8.63333 13.125 7.90829 12.905 7.29163 12.4929C6.67493 12.0811 6.19427 11.4954 5.91046 10.8101C5.62662 10.1248 5.55237 9.37085 5.69705 8.64331C5.84174 7.91602 6.19891 7.2478 6.72336 6.72339C7.2478 6.19897 7.91599 5.8418 8.6434 5.69702C9.37085 5.55225 10.1248 5.62671 10.8101 5.9104C11.4953 6.19434 12.081 6.67505 12.493 7.2915C12.9051 7.9082 13.125 8.6333 13.125 9.375C13.1239 10.3691 12.7285 11.3225 12.0255 12.0254C11.3224 12.7285 10.3692 13.124 9.375 13.125Z"
		fill="#CBB68F" fill-opacity="1.000000" fill-rule="nonzero" />
</svg>