<svg width="30.793549" height="34.000000" viewBox="0 0 30.7935 34" fill="none" xmlns="http://www.w3.org/2000/svg"
	xmlns:xlink="http://www.w3.org/1999/xlink">
	<path id="path14"
		d="M4.96759 1.96997C4.96759 1.50049 5.34963 1.11865 5.81894 1.11865L28.091 1.11865C28.5605 1.11865 28.9424 1.50049 28.9424 1.96997L28.9424 27.1746L30.061 28.2932L30.061 1.96997C30.061 0.883789 29.1774 0 28.091 0L5.81894 0C4.73277 0 3.849 0.883789 3.849 1.96997L3.849 4.42529C4.2074 4.17456 4.58049 3.94666 4.96759 3.74243L4.96759 1.96997Z"
		fill="#CBB68F" fill-opacity="1.000000" fill-rule="nonzero" />
	<path id="path16"
		d="M5.81894 31.7798C5.34963 31.7798 4.96759 31.3979 4.96759 30.9285L4.96759 22.5186C4.58049 22.3143 4.2074 22.0864 3.849 21.8357L3.849 30.9285C3.849 32.0146 4.73277 32.8984 5.81894 32.8984L24.7192 32.8984L23.6006 31.7798L5.81894 31.7798Z"
		fill="#CBB68F" fill-opacity="1.000000" fill-rule="nonzero" />
	<path id="path18"
		d="M25.3123 5.8103C25.3123 5.50134 25.062 5.25098 24.753 5.25098L17.0356 5.25098C17.1697 5.37207 17.3009 5.49695 17.4293 5.62549C17.668 5.86414 17.8941 6.11255 18.1071 6.36963L24.753 6.36963C25.062 6.36963 25.3123 6.11926 25.3123 5.8103Z"
		fill="#CBB68F" fill-opacity="1.000000" fill-rule="nonzero" />
	<path id="path20"
		d="M25.312 11.1296C25.312 10.8207 25.0616 10.5703 24.7527 10.5703L20.2263 10.5703C20.3178 10.9388 20.3892 11.312 20.4405 11.689L24.7527 11.689C25.0616 11.689 25.312 11.4385 25.312 11.1296Z"
		fill="#CBB68F" fill-opacity="1.000000" fill-rule="nonzero" />
	<path id="path22"
		d="M25.312 16.449C25.312 16.1403 25.0616 15.8899 24.7527 15.8899L20.1749 15.8899C20.0732 16.2678 19.9503 16.6411 19.8062 17.0083L24.7527 17.0083C25.0616 17.0083 25.312 16.7579 25.312 16.449Z"
		fill="#CBB68F" fill-opacity="1.000000" fill-rule="nonzero" />
	<path id="path24"
		d="M25.3121 21.7686C25.3121 21.4598 25.0617 21.2092 24.7528 21.2092L22.8931 21.2092C23.0171 21.2788 23.1326 21.3655 23.2359 21.4688L24.0951 22.3279L24.7528 22.3279C25.0617 22.3279 25.3121 22.0775 25.3121 21.7686Z"
		fill="#CBB68F" fill-opacity="1.000000" fill-rule="nonzero" />
	<path id="path26"
		d="M8.59644 27.0881C8.59644 27.3971 8.84679 27.6475 9.15573 27.6475L19.4672 27.6475L18.3486 26.5288L9.15573 26.5288C8.84679 26.5288 8.59644 26.7792 8.59644 27.0881Z"
		fill="#CBB68F" fill-opacity="1.000000" fill-rule="nonzero" />
	<path id="path28"
		d="M18.329 24.1694L20.9635 21.535L18.6317 19.2032C18.2764 19.7115 17.8749 20.1898 17.4294 20.6354C16.9839 21.0811 16.5055 21.4823 15.9973 21.8376L18.329 24.1694Z"
		fill="#CBB68F" fill-opacity="1.000000" fill-rule="nonzero" />
	<path id="path30"
		d="M30.5385 29.7469L22.748 21.9564C22.578 21.7866 22.3552 21.7015 22.1325 21.7015C21.9096 21.7015 21.6868 21.7866 21.517 21.9564L21.4506 22.0228L18.8162 24.6572L18.7499 24.7236C18.41 25.0634 18.41 25.6146 18.7499 25.9546L26.5403 33.7451C26.7104 33.915 26.933 34 27.1559 34C27.3787 34 27.6015 33.915 27.7714 33.7451L30.5385 30.9781C30.8783 30.6382 30.8783 30.0869 30.5385 29.7469Z"
		fill="#CBB68F" fill-opacity="1.000000" fill-rule="nonzero" />
	<path id="path32"
		d="M4.55287 18.5018C1.59129 15.5403 1.59129 10.7211 4.55287 7.75952C7.51446 4.79797 12.3334 4.79797 15.2952 7.75952C18.2567 10.7211 18.2567 15.54 15.2952 18.5018C12.3334 21.4634 7.51446 21.4634 4.55287 18.5018ZM16.9413 20.1479C17.8882 19.201 18.6216 18.0963 19.1213 16.8643C19.6034 15.6752 19.848 14.4189 19.848 13.1307C19.848 11.8424 19.6034 10.5862 19.1213 9.39709C18.6216 8.16504 17.8882 7.0603 16.9413 6.1134C15.9944 5.1665 14.8896 4.43311 13.6576 3.93347C12.4684 3.45129 11.2123 3.20667 9.92401 3.20667C8.63575 3.20667 7.37957 3.45129 6.19025 3.93347C4.95837 4.43311 3.85363 5.1665 2.90672 6.1134C1.95982 7.0603 1.2263 8.16504 0.726768 9.39697C0.244621 10.5862 0 11.8424 0 13.1307C0 14.4189 0.244621 15.6752 0.726768 16.8644C1.2263 18.0963 1.95982 19.201 2.90672 20.1479C3.85363 21.0948 4.95837 21.8282 6.19025 22.3279C7.37957 22.8101 8.63575 23.0547 9.92401 23.0547C11.2123 23.0547 12.4684 22.8101 13.6576 22.3279C14.8896 21.8282 15.9944 21.0948 16.9413 20.1479Z"
		fill="#CBB68F" fill-opacity="1.000000" fill-rule="nonzero" />
	<path id="path34"
		d="M6.20857 12.6033C6.1797 12.6666 6.13631 12.7209 6.07841 12.7664C6.02067 12.812 5.94842 12.8473 5.86164 12.8724C5.77487 12.8976 5.67358 12.91 5.55794 12.91L5.14265 12.91L5.14265 11.8867L5.50831 11.8867C5.60133 11.8867 5.67409 11.8894 5.72676 11.8949C5.77943 11.9005 5.82636 11.908 5.86772 11.9172C6.00413 11.9508 6.10221 12.0084 6.16214 12.0903C6.22207 12.172 6.25195 12.2725 6.25195 12.3915C6.25195 12.4695 6.23743 12.5402 6.20857 12.6033ZM7.22486 14.6084L6.88722 13.8973C6.84789 13.8118 6.8077 13.7351 6.76635 13.6672C6.72499 13.5994 6.68109 13.5389 6.63467 13.4858C6.58824 13.4329 6.53861 13.3878 6.48594 13.3507C6.43327 13.3135 6.37688 13.282 6.31712 13.2559C6.44103 13.2205 6.55144 13.1741 6.64868 13.1163C6.74575 13.0588 6.82729 12.991 6.89347 12.913C6.95947 12.8347 7.00961 12.746 7.04372 12.6465C7.07782 12.5471 7.09487 12.437 7.09487 12.3162C7.09487 12.173 7.07106 12.046 7.02346 11.9354C6.97602 11.825 6.90731 11.729 6.8175 11.6482C6.72769 11.5673 6.61812 11.5018 6.48898 11.4517C6.35983 11.4014 6.21481 11.3661 6.05376 11.3456C5.99788 11.3401 5.93592 11.3354 5.86772 11.3317C5.79969 11.328 5.71292 11.326 5.60757 11.326L4.56951 11.326C4.5013 11.326 4.44407 11.3442 4.39748 11.3806C4.35106 11.4167 4.32776 11.4758 4.32776 11.5575L4.32776 14.8342C4.32776 14.8528 4.334 14.8695 4.34633 14.8844C4.35882 14.8994 4.38043 14.9114 4.41149 14.9207C4.44239 14.9299 4.48425 14.9374 4.53692 14.943C4.5896 14.9485 4.65527 14.9514 4.73377 14.9514C4.81429 14.9514 4.8803 14.9485 4.93196 14.943C4.98362 14.9374 5.02498 14.9299 5.05604 14.9207C5.08694 14.9114 5.10905 14.8994 5.12256 14.8844C5.13606 14.8695 5.14265 14.8528 5.14265 14.8342L5.14265 13.4594L5.39689 13.4594C5.48349 13.4594 5.55997 13.4716 5.62614 13.4957C5.69215 13.5198 5.75056 13.5557 5.80121 13.603C5.85168 13.6505 5.89777 13.7096 5.93913 13.7802C5.98033 13.8507 6.0227 13.9318 6.06609 14.0227L6.4255 14.8287C6.43377 14.851 6.44407 14.87 6.45656 14.8859C6.46889 14.9016 6.48999 14.9147 6.52004 14.9249C6.54992 14.9351 6.59077 14.942 6.64243 14.9458C6.69409 14.9496 6.76331 14.9514 6.85008 14.9514C6.95323 14.9514 7.03493 14.9496 7.09487 14.9458C7.15463 14.942 7.20021 14.9355 7.2311 14.9263C7.26217 14.917 7.28175 14.9053 7.29002 14.8915C7.29829 14.8774 7.30235 14.8602 7.30235 14.8398C7.30235 14.8213 7.29728 14.7958 7.28698 14.7632C7.27652 14.7306 7.25592 14.6791 7.22486 14.6084Z"
		fill="#CBB68F" fill-opacity="1.000000" fill-rule="nonzero" />
	<path id="path36"
		d="M8.69957 14.8844C8.71291 14.8695 8.71966 14.8528 8.71966 14.8342L8.71966 11.4265C8.71966 11.408 8.71291 11.3912 8.69957 11.3763C8.68607 11.3615 8.66395 11.3494 8.63289 11.3401C8.60199 11.3308 8.56063 11.3234 8.50898 11.3177C8.45732 11.3121 8.39131 11.3093 8.31061 11.3093C8.23211 11.3093 8.16711 11.3121 8.11546 11.3177C8.0638 11.3234 8.02193 11.3308 7.99002 11.3401C7.95795 11.3494 7.93516 11.3615 7.92182 11.3763C7.90832 11.3912 7.90173 11.408 7.90173 11.4265L7.90173 14.8342C7.90173 14.8528 7.90832 14.8695 7.92182 14.8844C7.93516 14.8994 7.95744 14.9114 7.98851 14.9207C8.0194 14.9299 8.06127 14.9374 8.11394 14.943C8.16661 14.9485 8.23211 14.9514 8.31061 14.9514C8.39131 14.9514 8.45732 14.9485 8.50898 14.943C8.56063 14.9374 8.60199 14.9299 8.63289 14.9207C8.66395 14.9114 8.68607 14.8994 8.69957 14.8844Z"
		fill="#CBB68F" fill-opacity="1.000000" fill-rule="nonzero" />
	<path id="path38"
		d="M11.7236 11.5785C11.7185 11.5573 11.7123 11.54 11.705 11.527C11.6978 11.514 11.6839 11.4982 11.6632 11.4796C11.6426 11.4611 11.6002 11.4377 11.5362 11.4099C11.4722 11.382 11.3988 11.3568 11.3162 11.3346C11.2335 11.3123 11.1447 11.2946 11.0497 11.2816C10.9546 11.2686 10.8596 11.262 10.7647 11.262C10.5809 11.262 10.4068 11.2834 10.2425 11.3262C10.0783 11.369 9.9358 11.4335 9.81492 11.5201C9.69405 11.6066 9.59816 11.7152 9.52675 11.8463C9.45551 11.9773 9.41989 12.1294 9.41989 12.3022C9.41989 12.4529 9.4447 12.5822 9.49434 12.6898C9.5438 12.7977 9.60846 12.8911 9.68797 12.9701C9.76749 13.0491 9.8578 13.1169 9.9591 13.1737C10.0602 13.2303 10.1646 13.281 10.2721 13.3256C10.3795 13.3704 10.4838 13.4126 10.5849 13.4525C10.6862 13.4926 10.7765 13.5353 10.856 13.5808C10.9355 13.6265 11.0002 13.6785 11.0497 13.7371C11.0993 13.7957 11.1241 13.8658 11.1241 13.9475C11.1241 14.0183 11.1096 14.0824 11.0807 14.14C11.0517 14.1975 11.01 14.246 10.9553 14.285C10.9004 14.324 10.8339 14.3542 10.7554 14.3756C10.6769 14.397 10.5881 14.4077 10.4888 14.4077C10.3381 14.4077 10.2054 14.3923 10.0908 14.3617C9.97615 14.3309 9.87739 14.2971 9.79483 14.2599C9.71211 14.2228 9.64458 14.1888 9.59192 14.1581C9.53924 14.1273 9.49839 14.1122 9.46952 14.1122C9.44876 14.1122 9.43069 14.1172 9.41533 14.1273C9.3998 14.1377 9.38731 14.1549 9.37802 14.179C9.36874 14.2031 9.36198 14.2347 9.35793 14.2739C9.35371 14.3129 9.35168 14.3612 9.35168 14.4189C9.35168 14.5043 9.35742 14.5699 9.36874 14.6154C9.38005 14.661 9.39929 14.6959 9.42613 14.7201C9.45298 14.7441 9.49687 14.7721 9.55781 14.8036C9.61876 14.8353 9.69456 14.8656 9.78555 14.8943C9.87637 14.9231 9.98121 14.9478 10.1001 14.9683C10.2187 14.9886 10.3474 14.9988 10.4858 14.9988C10.6903 14.9988 10.8824 14.9746 11.0622 14.9264C11.2418 14.8781 11.3988 14.806 11.5332 14.7103C11.6674 14.6145 11.7737 14.495 11.8522 14.3518C11.9307 14.2087 11.9701 14.0425 11.9701 13.8527C11.9701 13.7076 11.9452 13.5817 11.8956 13.4749C11.846 13.368 11.781 13.275 11.7005 13.1959C11.6199 13.1169 11.5279 13.0491 11.4246 12.9923C11.3213 12.9358 11.216 12.885 11.1086 12.8405C11.0012 12.7959 10.8959 12.7535 10.7926 12.7135C10.6892 12.6736 10.5969 12.631 10.5152 12.5853C10.4336 12.5398 10.3685 12.4875 10.32 12.4292C10.2714 12.3706 10.2473 12.3014 10.2473 12.2213C10.2473 12.1675 10.2581 12.1163 10.2797 12.0679C10.3015 12.0197 10.3344 11.9783 10.3789 11.9438C10.4233 11.9095 10.4786 11.8826 10.5447 11.8629C10.6107 11.8435 10.6882 11.8337 10.777 11.8337C10.8906 11.8337 10.995 11.8463 11.09 11.8715C11.1851 11.8966 11.2686 11.9244 11.341 11.955C11.4133 11.9857 11.4742 12.014 11.5239 12.04C11.5733 12.0663 11.6095 12.0791 11.6323 12.0791C11.6549 12.0791 11.6729 12.0735 11.6864 12.0624C11.7 12.0511 11.7103 12.0337 11.7175 12.0095C11.7246 11.9854 11.7298 11.9546 11.7329 11.9174C11.7361 11.8802 11.7376 11.8348 11.7376 11.7808C11.7376 11.7324 11.7366 11.692 11.7346 11.6594C11.7324 11.627 11.7288 11.6 11.7236 11.5785Z"
		fill="#CBB68F" fill-opacity="1.000000" fill-rule="nonzero" />
	<path id="path40"
		d="M15.3244 11.6858C15.3761 11.6134 15.4112 11.5603 15.4297 11.527C15.4483 11.4935 15.4576 11.4609 15.4576 11.4293C15.4576 11.4108 15.4513 11.394 15.439 11.379C15.4267 11.3641 15.4044 11.3517 15.3725 11.3414C15.3404 11.3313 15.2975 11.3234 15.2439 11.3177C15.19 11.3121 15.122 11.3093 15.0393 11.3093C14.9587 11.3093 14.8926 11.3112 14.8411 11.3149C14.7894 11.3187 14.747 11.3252 14.7139 11.3345C14.6809 11.3438 14.654 11.3564 14.6334 11.3721C14.6128 11.3879 14.5953 11.408 14.5807 11.432L13.4064 12.5776L13.4064 11.4293C13.4064 11.4089 13.4002 11.3912 13.3879 11.3763C13.3754 11.3615 13.3538 11.3494 13.3227 11.3401C13.2918 11.3308 13.2505 11.3234 13.1988 11.3177C13.1471 11.3121 13.0811 11.3093 13.0004 11.3093C12.9219 11.3093 12.8564 11.3121 12.8038 11.3177C12.7511 11.3234 12.7092 11.3308 12.6783 11.3401C12.6473 11.3494 12.625 11.3615 12.6116 11.3763C12.5981 11.3912 12.5916 11.4089 12.5916 11.4293L12.5916 14.8287C12.5916 14.8491 12.5981 14.8668 12.6116 14.8817C12.625 14.8966 12.6473 14.9091 12.6783 14.9193C12.7092 14.9294 12.7511 14.9374 12.8038 14.943C12.8564 14.9485 12.9219 14.9514 13.0004 14.9514C13.0811 14.9514 13.1471 14.9485 13.1988 14.943C13.2505 14.9374 13.2918 14.9294 13.3227 14.9193C13.3538 14.9091 13.3754 14.8966 13.3879 14.8817C13.4002 14.8668 13.4064 14.8491 13.4064 14.8287L13.4064 13.5045L14.6179 14.8287C14.6324 14.8547 14.6525 14.877 14.6783 14.8955C14.7042 14.9143 14.7465 14.9281 14.8054 14.9374C14.8642 14.9467 14.9608 14.9514 15.0951 14.9514C15.1797 14.9514 15.2501 14.9485 15.3058 14.943C15.3615 14.9374 15.4054 14.9294 15.4375 14.9193C15.4696 14.9091 15.4912 14.896 15.5025 14.8804C15.514 14.8645 15.5195 14.8464 15.5195 14.8258C15.5195 14.8109 15.515 14.791 15.5057 14.7659C15.4964 14.7408 15.4689 14.6903 15.4235 14.6139L14.0304 12.9827L15.3244 11.6858Z"
		fill="#CBB68F" fill-opacity="1.000000" fill-rule="nonzero" />
</svg>