<svg width="24.028595" height="24.823730" viewBox="0 0 24.0286 24.8237" fill="none" xmlns="http://www.w3.org/2000/svg"
	xmlns:xlink="http://www.w3.org/1999/xlink">
	<path id="Vector"
		d="M23.4846 11.4885L1.48456 0.109375C1.31212 0.0200195 1.11844 -0.015625 0.926834 0.00634766C0.735214 0.0283203 0.553848 0.107178 0.404556 0.233398C0.261978 0.356934 0.155563 0.519287 0.0972595 0.702148C0.0389709 0.884766 0.0310974 1.08081 0.0745544 1.26782L2.72455 11.3748L14.0345 11.3748L14.0345 13.4438L2.72455 13.4438L0.0345459 23.5195C-0.00622559 23.6758 -0.0109863 23.8398 0.0206604 23.9983C0.0522919 24.157 0.119446 24.3054 0.216705 24.4324C0.31398 24.5591 0.438644 24.6604 0.580688 24.7283C0.722733 24.7961 0.878189 24.8286 1.03455 24.823C1.1911 24.822 1.34523 24.7832 1.48456 24.7092L23.4846 13.3298C23.6483 13.2432 23.7858 13.1113 23.8818 12.9487C23.9778 12.7864 24.0286 12.5996 24.0286 12.4092C24.0286 12.2188 23.9778 12.0322 23.8818 11.8696C23.7858 11.7073 23.6483 11.5754 23.4846 11.4885Z"
		fill="currentColor" fill-opacity="1.000000" fill-rule="nonzero" />
</svg>