<svg width="30.822754" height="35.000000" viewBox="0 0 30.8228 35" fill="none" xmlns="http://www.w3.org/2000/svg"
	xmlns:xlink="http://www.w3.org/1999/xlink">

	<rect id="Group 4920 1" width="30.822784" height="35.000000" fill="#FFFFFF" fill-opacity="0" />
	<g clip-path="url(#clip52_1204)">
		<mask id="mask52_1206" mask-type="alpha" maskUnits="userSpaceOnUse" x="0.000000" y="2.341797" width="21.898682"
			height="27.151855">
			<path id="Vector"
				d="M0.316406 2.3418L21.5823 2.3418C21.7571 2.3418 21.8987 2.48352 21.8987 2.6582L21.8987 29.1772C21.8987 29.3521 21.7571 29.4937 21.5823 29.4937L0.316406 29.4937C0.141724 29.4937 0 29.3521 0 29.1772L0 2.6582C0 2.48352 0.141724 2.3418 0.316406 2.3418Z"
				fill="#FFFFFF" fill-opacity="1.000000" fill-rule="evenodd" />
		</mask>
		<g mask="url(#mask52_1206)">
			<path id="Vector"
				d="M21.5823 2.3418C21.7571 2.3418 21.8987 2.48352 21.8987 2.6582L21.8987 29.1772C21.8987 29.3521 21.7571 29.4937 21.5823 29.4937L0.316406 29.4937C0.141724 29.4937 0 29.3521 0 29.1772L0 2.6582C0 2.48352 0.141724 2.3418 0.316406 2.3418L21.5823 2.3418Z"
				stroke="#CBB68F" stroke-opacity="1.000000" stroke-width="3.564681" />
		</g>
		<path id="Vector"
			d="M13.7976 12.4683C13.7976 12.8877 13.4575 13.2278 13.0381 13.2278C12.6187 13.2278 12.2786 12.8877 12.2786 12.4683C12.2786 12.0488 12.6187 11.7087 13.0381 11.7087C13.4575 11.7087 13.7976 12.0488 13.7976 12.4683Z"
			fill="#CBB68F" fill-opacity="1.000000" fill-rule="evenodd" />
		<path id="Vector"
			d="M5.18994 17.6582C5.18994 18.0776 4.84985 18.4177 4.43042 18.4177C4.01099 18.4177 3.6709 18.0776 3.6709 17.6582C3.6709 17.2388 4.01099 16.8987 4.43042 16.8987C4.84985 16.8987 5.18994 17.2388 5.18994 17.6582Z"
			fill="#CBB68F" fill-opacity="1.000000" fill-rule="evenodd" />
		<path id="Vector"
			d="M13.7976 22.9747C13.7976 23.3942 13.4575 23.7343 13.0381 23.7343C12.6187 23.7343 12.2786 23.3942 12.2786 22.9747C12.2786 22.5553 12.6187 22.2152 13.0381 22.2152C13.4575 22.2152 13.7976 22.5553 13.7976 22.9747Z"
			fill="#CBB68F" fill-opacity="1.000000" fill-rule="evenodd" />
		<path id="Vector"
			d="M5.85522 15.6992L11.1882 12.8932C11.4091 12.7771 11.6821 12.8618 11.7983 13.0826C11.9144 13.3033 11.8297 13.5764 11.6089 13.6926L6.27588 16.4987C6.05518 16.6147 5.78198 16.53 5.66589 16.3092C5.54968 16.0885 5.63452 15.8154 5.85522 15.6992Z"
			fill="#CBB68F" fill-opacity="1.000000" fill-rule="evenodd" />
		<path id="Vector"
			d="M6.30591 18.9431L11.663 21.703C11.8846 21.8173 11.9718 22.0896 11.8575 22.3114C11.7433 22.5331 11.4709 22.6202 11.2493 22.506L5.89221 19.7461C5.67041 19.6318 5.58337 19.3595 5.69751 19.1377C5.81177 18.916 6.08423 18.8289 6.30591 18.9431Z"
			fill="#CBB68F" fill-opacity="1.000000" fill-rule="evenodd" />
		<path id="Vector" d="M11.2026 8.58313L13.0697 6.77209L14.9368 8.58313M13.0697 7.02356L13.0697 10.6962"
			stroke="#CBB68F" stroke-opacity="1.000000" stroke-width="0.700205" stroke-linejoin="round" />
		<path id="Vector" d="M6.77222 1.70874L15.1899 1.70874L15.1899 4.99988L6.77222 4.99988L6.77222 1.70874Z"
			fill="#FFFFFF" fill-opacity="1.000000" fill-rule="evenodd" />
		<path id="Vector"
			d="M8.98743 1.07581L12.9747 1.07581C13.6039 1.07581 14.114 1.58582 14.114 2.21509L14.114 3.8606C14.114 4.48975 13.6039 4.99988 12.9747 4.99988L8.98743 4.99988C8.35815 4.99988 7.84814 4.48975 7.84814 3.8606L7.84814 2.21509C7.84814 1.58582 8.35815 1.07581 8.98743 1.07581Z"
			fill="#CBB68F" fill-opacity="1.000000" fill-rule="evenodd" />
		<path id="Vector"
			d="M10.0634 1.77222L11.8988 1.77222C12.528 1.77222 13.038 2.28223 13.038 2.9115L13.038 3.16467C13.038 3.79382 12.528 4.30383 11.8988 4.30383L10.0634 4.30383C9.43408 4.30383 8.92407 3.79382 8.92407 3.16467L8.92407 2.9115C8.92407 2.28223 9.43408 1.77222 10.0634 1.77222Z"
			fill="#CBB68F" fill-opacity="1.000000" fill-rule="evenodd" />
		<path id="Vector"
			d="M10.1266 -0.00012207L11.8354 -0.00012207C12.1849 -0.00012207 12.4684 0.283203 12.4684 0.632812L12.4684 0.885986C12.4684 1.23547 12.1849 1.51892 11.8354 1.51892L10.1266 1.51892C9.77698 1.51892 9.49365 1.23547 9.49365 0.885986L9.49365 0.632812C9.49365 0.283203 9.77698 -0.00012207 10.1266 -0.00012207Z"
			fill="#CBB68F" fill-opacity="1.000000" fill-rule="evenodd" />
		<path id="Vector"
			d="M23.0062 34.462C27.026 34.462 30.2848 31.2032 30.2848 27.1835C30.2848 23.1637 27.026 19.905 23.0062 19.905C18.9865 19.905 15.7278 23.1637 15.7278 27.1835C15.7278 31.2032 18.9865 34.462 23.0062 34.462Z"
			fill="#CBB68F" fill-opacity="1.000000" fill-rule="nonzero" />
		<path id="Vector"
			d="M23.0062 34.462C18.9865 34.462 15.7278 31.2032 15.7278 27.1835C15.7278 23.1637 18.9865 19.905 23.0062 19.905C27.026 19.905 30.2848 23.1637 30.2848 27.1835C30.2848 31.2032 27.026 34.462 23.0062 34.462Z"
			stroke="#CBB68F" stroke-opacity="1.000000" stroke-width="1.082135" />
		<path id="Vector"
			d="M21.4709 29.0201L26.7695 24.0981C26.8947 23.9821 27.0432 23.924 27.2153 23.924C27.3875 23.924 27.5359 23.9821 27.6605 24.0981C27.7855 24.2144 27.848 24.3524 27.848 24.5122C27.848 24.6721 27.7855 24.8099 27.6605 24.9258L21.9086 30.2687C21.7836 30.3849 21.6376 30.443 21.4709 30.443C21.3042 30.443 21.1583 30.3849 21.0332 30.2687L18.3448 27.7715C18.2198 27.6553 18.1598 27.5175 18.1648 27.3579C18.1698 27.1985 18.235 27.0604 18.3605 26.9438C18.4856 26.8278 18.6342 26.7697 18.8063 26.7697C18.9784 26.7697 19.1268 26.8278 19.2515 26.9438L21.4709 29.0201Z"
			fill="#FFFFFF" fill-opacity="1.000000" fill-rule="nonzero" />
	</g>
</svg>