<svg width="29.000000" height="35.000000" viewBox="0 0 29 35" fill="none" xmlns="http://www.w3.org/2000/svg" xmlns:xlink="http://www.w3.org/1999/xlink">
	<path id="Vector" d="M28.826 4.69153L23.6595 0.152832C23.5483 0.0550537 23.3975 0.00012207 23.24 0L0.593628 0C0.436157 0 0.285156 0.0549316 0.173828 0.15271C0.0625 0.250488 0 0.383057 0 0.52124L0 34.4788C0 34.6169 0.0625 34.7495 0.173828 34.8473C0.285156 34.9451 0.436157 35 0.593628 35L28.4064 35C28.5638 35 28.7148 34.9451 28.8262 34.8473C28.9375 34.7495 29 34.6169 29 34.4788L29 5.05847C28.9995 4.92078 28.9369 4.78882 28.826 4.69153ZM23.8336 1.78125L26.9734 4.5387L23.8336 4.5387L23.8336 1.78125ZM1.18713 33.9574L1.18713 1.0426L22.6465 1.0426L22.6465 5.05847C22.6465 5.19678 22.709 5.32935 22.8203 5.42712C22.9316 5.52478 23.0826 5.57971 23.24 5.57971L27.8129 5.57971L27.8129 33.9574L1.18713 33.9574Z" fill="#CBB68F" fill-opacity="1.000000" fill-rule="nonzero"/>
	<path id="Vector" d="M14.5002 29.4199L5.76025 29.4199C5.60278 29.4199 5.45178 29.4749 5.34045 29.5726C5.22913 29.6703 5.16663 29.803 5.16663 29.9412C5.16663 30.0795 5.22913 30.212 5.34045 30.3098C5.45178 30.4076 5.60278 30.4624 5.76025 30.4624L14.5002 30.4624C14.6576 30.4624 14.8086 30.4076 14.9199 30.3098C15.0312 30.212 15.0938 30.0795 15.0938 29.9412C15.0938 29.803 15.0312 29.6703 14.9199 29.5726C14.8086 29.4749 14.6576 29.4199 14.5002 29.4199ZM23.2402 26.1007L5.76025 26.1007C5.60278 26.1007 5.45178 26.1556 5.34045 26.2534C5.22913 26.3512 5.16663 26.4838 5.16663 26.6219C5.16663 26.7603 5.22913 26.8928 5.34045 26.9906C5.45178 27.0884 5.60278 27.1433 5.76025 27.1433L23.2402 27.1433C23.3977 27.1433 23.5486 27.0884 23.6599 26.9906C23.7712 26.8928 23.8339 26.7603 23.8339 26.6219C23.8339 26.4838 23.7712 26.3512 23.6599 26.2534C23.5486 26.1556 23.3977 26.1007 23.2402 26.1007ZM23.2402 22.7815L5.76025 22.7815C5.60278 22.7815 5.45178 22.8364 5.34045 22.9342C5.22913 23.032 5.16663 23.1646 5.16663 23.3029C5.16663 23.441 5.22913 23.5736 5.34045 23.6714C5.45178 23.7692 5.60278 23.8241 5.76025 23.8241L23.2402 23.8241C23.3977 23.8241 23.5486 23.7692 23.6599 23.6714C23.7712 23.5736 23.8339 23.441 23.8339 23.3029C23.8339 23.1646 23.7712 23.032 23.6599 22.9342C23.5486 22.8364 23.3977 22.7815 23.2402 22.7815Z" fill="#CBB68F" fill-opacity="1.000000" fill-rule="nonzero"/>
	<ellipse id="Ellipse 2" cx="14.500122" cy="12.000000" rx="6.766667" ry="7.000000" fill="#CBB68F" fill-opacity="1.000000"/>
	<path id="Vector" d="M13.2679 13.1575L17.4902 9.72791C17.59 9.64697 17.7083 9.60645 17.8455 9.60645C17.9827 9.60645 18.1008 9.64697 18.2002 9.72791C18.2998 9.80884 18.3497 9.90503 18.3497 10.0164C18.3497 10.1278 18.2998 10.2239 18.2002 10.3046L13.6167 14.0276C13.5171 14.1085 13.4009 14.149 13.2679 14.149C13.1351 14.149 13.0189 14.1085 12.9192 14.0276L10.777 12.2875C10.6774 12.2065 10.6295 12.1105 10.6335 11.9993C10.6376 11.8882 10.6895 11.792 10.7894 11.7108C10.889 11.6299 11.0074 11.5894 11.1447 11.5894C11.2819 11.5894 11.4 11.6299 11.4994 11.7108L13.2679 13.1575Z" fill="#FFFFFF" fill-opacity="1.000000" fill-rule="nonzero"/>
</svg>
