<svg width="30.833374" height="25.587402" viewBox="0 0 30.8334 25.5874" fill="none" xmlns="http://www.w3.org/2000/svg"
	xmlns:xlink="http://www.w3.org/1999/xlink">
	<path id="Vector"
		d="M25.8967 2.81006C25.0937 1.88672 24.0265 1.23242 22.8394 0.935547C21.6523 0.638672 20.4027 0.713379 19.2595 1.14941C18.1162 1.58594 17.1346 2.36279 16.4473 3.375C15.7601 4.3877 15.4003 5.58691 15.4167 6.81006L15.4167 8.14355C13.0735 8.2041 10.7517 7.68457 8.65805 6.63086C6.56436 5.57715 4.76379 4.02197 3.41669 2.10352C3.41669 2.10352 -1.91663 14.1035 10.0834 19.437C7.3374 21.3008 4.06625 22.2354 0.750031 22.1035C12.75 28.77 27.4167 22.1035 27.4167 6.77002C27.4167 6.39941 27.3794 6.02881 27.31 5.66357C28.67 4.32227 30.0834 0.77002 30.0834 0.77002C30.0834 0.77002 27.3927 2.35938 25.8967 2.81006Z"
		stroke="#112615" stroke-opacity="1.000000" stroke-width="1.500000" stroke-linejoin="round" />
</svg>