<svg width="33.000000" height="27.000000" viewBox="0 0 33 27" fill="none" xmlns="http://www.w3.org/2000/svg"
	xmlns:xlink="http://www.w3.org/1999/xlink">
	<path id="Vector"
		d="M20.9672 11.5093L15.0984 8.07739C14.7538 7.87598 14.3631 7.77002 13.9655 7.77026C13.5679 7.77051 13.1774 7.87695 12.8331 8.0791C12.4888 8.28101 12.2029 8.57153 12.004 8.92114C11.8051 9.27075 11.7003 9.66748 11.7 10.0713L11.7 16.9319C11.6952 17.7542 12.1272 18.5146 12.8296 18.9209C13.174 19.1252 13.5655 19.2332 13.9644 19.2339C14.3632 19.2344 14.7551 19.1277 15.1 18.9243L20.9672 15.4922C21.3119 15.291 21.5982 15.001 21.7973 14.6516C21.9964 14.302 22.1012 13.9055 22.1012 13.5017C22.1012 13.0979 21.9964 12.7012 21.7973 12.3518C21.5982 12.0022 21.3119 11.7122 20.9672 11.511M14.3016 17.5154C14.2 17.5759 14.0842 17.6079 13.9664 17.6079C13.8486 17.6079 13.7328 17.5759 13.6312 17.5154C13.5293 17.4568 13.4447 17.3713 13.3864 17.2681C13.3282 17.165 13.2983 17.0476 13.3 16.9287L13.3 10.0713C13.2989 9.95288 13.329 9.83618 13.3872 9.73364C13.4455 9.6311 13.5297 9.54614 13.6312 9.48779C13.732 9.42554 13.8476 9.39258 13.9656 9.39258C14.0836 9.39258 14.1992 9.42554 14.3 9.48779L20.1672 12.9214C20.2684 12.9795 20.3526 13.0637 20.4112 13.1658C20.4697 13.2676 20.5006 13.3835 20.5006 13.5017C20.5006 13.6196 20.4697 13.7356 20.4112 13.8374C20.3526 13.9395 20.2684 14.0237 20.1672 14.0818L14.3016 17.5154ZM5.29999 0.5C4.02734 0.501221 2.80719 1.01538 1.90729 1.9292C1.00739 2.84326 0.501282 4.08252 0.5 5.375L0.5 21.625C0.501282 22.9175 1.00739 24.1567 1.90729 25.0708C2.80719 25.9846 4.02734 26.4988 5.29999 26.5L27.7 26.5C28.9727 26.4988 30.1928 25.9846 31.0927 25.0708C31.9926 24.1567 32.4987 22.9175 32.5 21.625L32.5 5.375C32.4987 4.08252 31.9926 2.84326 31.0927 1.9292C30.1928 1.01538 28.9727 0.501221 27.7 0.5L5.29999 0.5ZM29.9613 23.9216C29.3615 24.531 28.5483 24.8738 27.7 24.875L5.29999 24.875C4.45169 24.8738 3.63849 24.531 3.03867 23.9216C2.43881 23.3125 2.10126 22.4866 2.10001 21.625L2.10001 5.375C2.10126 4.51343 2.43881 3.6875 3.03867 3.07837C3.63849 2.46899 4.45169 2.12622 5.29999 2.125L27.7 2.125C28.5483 2.12622 29.3615 2.46899 29.9613 3.07837C30.5612 3.6875 30.8987 4.51343 30.9 5.375L30.9 21.625C30.8987 22.4866 30.5612 23.3125 29.9613 23.9216Z"
		stroke-opacity="1.000000" stroke-width="1.000000" />
</svg>