<svg width="32.000000" height="26.000000" viewBox="0 0 32 26" fill="none" xmlns="http://www.w3.org/2000/svg"
	xmlns:xlink="http://www.w3.org/1999/xlink">
	<path id="Vector"
		d="M20.4672 11.0093L14.5984 7.57715C14.2538 7.37598 13.8631 7.27002 13.4655 7.27051C13.0679 7.27051 12.6774 7.37695 12.3331 7.5791C11.9888 7.78125 11.7029 8.07129 11.504 8.4209C11.3051 8.771 11.2003 9.16748 11.2 9.57129L11.2 16.4321C11.1952 17.2544 11.6272 18.0146 12.3296 18.4209C12.674 18.6255 13.0655 18.7334 13.4644 18.7339C13.8632 18.7344 14.2551 18.6274 14.6 18.4243L20.4672 14.9922C20.8119 14.791 21.0982 14.501 21.2973 14.1514C21.4964 13.8022 21.6012 13.4053 21.6012 13.0015C21.6012 12.5977 21.4964 12.2012 21.2973 11.8516C21.0982 11.5024 20.8119 11.2124 20.4672 11.0112M19.6672 13.5815L13.8016 17.0151C13.7 17.0762 13.5842 17.1079 13.4664 17.1079C13.3486 17.1079 13.2328 17.0762 13.1312 17.0151C13.0293 16.9565 12.9447 16.8716 12.8864 16.7681C12.8282 16.665 12.7983 16.5479 12.8 16.4287L12.8 9.57129C12.7989 9.45264 12.829 9.33643 12.8872 9.23389C12.9455 9.13086 13.0297 9.04639 13.1312 8.98779C13.232 8.92578 13.3476 8.89258 13.4656 8.89258C13.5836 8.89258 13.6992 8.92578 13.8 8.98779L19.6672 12.4214C19.7684 12.4795 19.8526 12.564 19.9112 12.6655C19.9697 12.7676 20.0006 12.8838 20.0006 13.0015C20.0006 13.1196 19.9697 13.2354 19.9112 13.3374C19.8526 13.4395 19.7684 13.5239 19.6672 13.5815ZM27.2 0L4.8 0C3.52734 0.00146484 2.30719 0.515137 1.40729 1.4292C0.507385 2.34326 0.00126648 3.58252 0 4.875L0 21.125C0.00126648 22.4175 0.507385 23.6567 1.40729 24.5708C2.30719 25.4849 3.52734 25.9985 4.8 26L27.2 26C28.4727 25.9985 29.6928 25.4849 30.5927 24.5708C31.4926 23.6567 31.9987 22.4175 32 21.125L32 4.875C31.9987 3.58252 31.4926 2.34326 30.5927 1.4292C29.6928 0.515137 28.4727 0.00146484 27.2 0ZM30.4 21.125C30.3987 21.9863 30.0612 22.8125 29.4613 23.4219C28.8615 24.0308 28.0483 24.3735 27.2 24.375L4.8 24.375C3.95169 24.3735 3.1385 24.0308 2.53867 23.4219C1.93881 22.8125 1.60127 21.9863 1.60001 21.125L1.60001 4.875C1.60127 4.01367 1.93881 3.1875 2.53867 2.57812C3.1385 1.96924 3.95169 1.62646 4.8 1.625L27.2 1.625C28.0483 1.62646 28.8615 1.96924 29.4613 2.57812C30.0612 3.1875 30.3987 4.01367 30.4 4.875L30.4 21.125Z"
		fill="#112615" fill-opacity="1.000000" fill-rule="nonzero" />
	<path id="Vector"
		d="M27.2 0L4.8 0C3.52734 0.00146484 2.30719 0.515137 1.40729 1.4292C0.507385 2.34326 0.00126648 3.58252 0 4.875L0 21.125C0.00126648 22.4175 0.507385 23.6567 1.40729 24.5708C2.30719 25.4849 3.52734 25.9985 4.8 26L27.2 26C28.4727 25.9985 29.6928 25.4849 30.5927 24.5708C31.4926 23.6567 31.9987 22.4175 32 21.125L32 4.875C31.9987 3.58252 31.4926 2.34326 30.5927 1.4292C29.6928 0.515137 28.4727 0.00146484 27.2 0ZM30.4 21.125C30.3987 21.9863 30.0612 22.8125 29.4613 23.4219C28.8615 24.0308 28.0483 24.3735 27.2 24.375L4.8 24.375C3.95169 24.3735 3.1385 24.0308 2.53867 23.4219C1.93881 22.8125 1.60127 21.9863 1.60001 21.125L1.60001 4.875C1.60127 4.01367 1.93881 3.1875 2.53867 2.57812C3.1385 1.96924 3.95169 1.62646 4.8 1.625L27.2 1.625C28.0483 1.62646 28.8615 1.96924 29.4613 2.57812C30.0612 3.1875 30.3987 4.01367 30.4 4.875L30.4 21.125ZM20.3219 11.2598L20.4672 11.0112C20.8119 11.2124 21.0982 11.5024 21.2973 11.8516C21.4964 12.2012 21.6012 12.5977 21.6012 13.0015C21.6012 13.4053 21.4964 13.8022 21.2973 14.1514C21.0982 14.501 20.8119 14.791 20.4672 14.9922L14.6 18.4243C14.2551 18.6274 13.8632 18.7344 13.4644 18.7339C13.0655 18.7334 12.674 18.6255 12.3296 18.4209C11.6272 18.0146 11.1952 17.2544 11.2 16.4321L11.2 9.57129C11.2003 9.16748 11.3051 8.771 11.504 8.4209C11.7029 8.07129 11.9888 7.78125 12.3331 7.5791C12.6774 7.37695 13.0679 7.27051 13.4655 7.27051C13.8631 7.27002 14.2538 7.37598 14.5984 7.57715L20.4672 11.0093L20.3211 11.2593L20.3219 11.2598ZM13.1312 8.98779C13.0297 9.04639 12.9455 9.13086 12.8872 9.23389C12.829 9.33643 12.7989 9.45264 12.8 9.57129L12.8 16.4287C12.7983 16.5479 12.8282 16.665 12.8864 16.7681C12.9447 16.8716 13.0293 16.9565 13.1312 17.0151C13.2328 17.0762 13.3486 17.1079 13.4664 17.1079C13.5842 17.1079 13.7 17.0762 13.8016 17.0151L19.6672 13.5815C19.7684 13.5239 19.8526 13.4395 19.9112 13.3374C19.9697 13.2354 20.0006 13.1196 20.0006 13.0015C20.0006 12.8838 19.9697 12.7676 19.9112 12.6655C19.8526 12.564 19.7684 12.4795 19.6672 12.4214L13.8 8.98779C13.6992 8.92578 13.5836 8.89258 13.4656 8.89258C13.3476 8.89258 13.232 8.92578 13.1312 8.98779Z"
		fill="#112615" fill-opacity="1.000000" fill-rule="evenodd" />
</svg>