<svg width="32.000000" height="26.000000" viewBox="0 0 32 26" fill="none" xmlns="http://www.w3.org/2000/svg"
	xmlns:xlink="http://www.w3.org/1999/xlink">
	<path id="Vector"
		d="M27.2 0L4.79999 0C3.52734 0.0012207 2.30719 0.515381 1.40729 1.4292C0.507385 2.34326 0.00128174 3.58252 0 4.875L0 21.125C0.00128174 22.4175 0.507385 23.6567 1.40729 24.5708C2.30719 25.4846 3.52734 25.9988 4.79999 26L27.2 26C28.4727 25.9988 29.6928 25.4846 30.5927 24.5708C31.4926 23.6567 31.9987 22.4175 32 21.125L32 4.875C31.9987 3.58252 31.4926 2.34326 30.5927 1.4292C29.6928 0.515381 28.4727 0.0012207 27.2 0ZM30.4 21.125C30.3987 21.9866 30.0612 22.8125 29.4613 23.4216C28.8615 24.031 28.0483 24.3738 27.2 24.375L4.79999 24.375C3.95169 24.3738 3.13849 24.031 2.53867 23.4216C1.93881 22.8125 1.60126 21.9866 1.60001 21.125L1.60001 4.875C1.60126 4.01343 1.93881 3.1875 2.53867 2.57837C3.13849 1.96899 3.95169 1.62622 4.79999 1.625L27.2 1.625C28.0483 1.62622 28.8615 1.96899 29.4613 2.57837C30.0612 3.1875 30.3987 4.01343 30.4 4.875L30.4 21.125ZM20.1539 11.5476L20.4672 11.011C20.8119 11.2122 21.0982 11.5022 21.2973 11.8518C21.4964 12.2012 21.6012 12.5979 21.6012 13.0017C21.6012 13.4055 21.4964 13.802 21.2973 14.1516C21.0982 14.501 20.8119 14.791 20.4672 14.9922L14.6 18.4243C14.2551 18.6277 13.8632 18.7344 13.4644 18.7339C13.0655 18.7332 12.674 18.6252 12.3296 18.4209C11.6272 18.0146 11.1952 17.2542 11.2 16.4319L11.2 9.57129C11.2003 9.16748 11.3051 8.77075 11.504 8.42114C11.7029 8.07153 11.9888 7.78101 12.3331 7.5791C12.6774 7.37695 13.0679 7.27051 13.4655 7.27026C13.8631 7.27002 14.2538 7.37598 14.5984 7.57739L20.4672 11.0093L20.1528 11.5471L20.1539 11.5476ZM13.1312 8.98779C13.0297 9.04614 12.9455 9.1311 12.8872 9.23364C12.829 9.33618 12.7989 9.45288 12.8 9.57129L12.8 16.4287C12.7983 16.5476 12.8282 16.665 12.8864 16.7681C12.9447 16.8713 13.0293 16.9568 13.1312 17.0154C13.2328 17.0759 13.3486 17.1079 13.4664 17.1079C13.5842 17.1079 13.7 17.0759 13.8016 17.0154L19.6672 13.5818C19.7684 13.5237 19.8526 13.4395 19.9112 13.3374C19.9697 13.2356 20.0006 13.1196 20.0006 13.0017C20.0006 12.8835 19.9697 12.7676 19.9112 12.6658C19.8526 12.5637 19.7684 12.4795 19.6672 12.4214L13.8 8.98779C13.6992 8.92554 13.5836 8.89258 13.4656 8.89258C13.3476 8.89258 13.232 8.92554 13.1312 8.98779Z"
		fill="#000000" fill-opacity="1.000000" fill-rule="evenodd" />
</svg>